<?xml version="1.0" encoding="utf-8"?>
<!-- Generator: Adobe Illustrator 24.1.1, SVG Export Plug-In . SVG Version: 6.00 Build 0)  -->
<svg version="1.1" id="Слой_1" xmlns="http://www.w3.org/2000/svg" xmlns:xlink="http://www.w3.org/1999/xlink" x="0px" y="0px"
	 viewBox="0 0 80.08 53.67" style="enable-background:new 0 0 80.08 53.67;" xml:space="preserve">
<style type="text/css">
	.st0{fill:none;stroke:#FFFFFF;stroke-width:2;stroke-miterlimit:10;}
</style>
<g>
	<path class="st0" d="M10.68,35.97c0-0.13,0.03-0.25,0.1-0.38c0.06-0.13,0.15-0.26,0.27-0.4c0.11-0.14,0.24-0.28,0.39-0.43
		s0.3-0.31,0.46-0.48c0.31-0.31,0.63-0.64,0.97-0.98c0.34-0.34,0.66-0.69,0.97-1.05c0.13-0.16,0.23-0.28,0.31-0.38
		c0.08-0.1,0.14-0.18,0.18-0.25c0.04-0.06,0.06-0.12,0.08-0.17c0.01-0.05,0.02-0.09,0.03-0.14c-0.22-0.28-0.41-0.59-0.58-0.91
		c-0.17-0.33-0.32-0.67-0.45-1.03c-0.13-0.36-0.25-0.72-0.36-1.08c-0.11-0.36-0.21-0.72-0.3-1.07c-0.09-0.32-0.17-0.64-0.25-0.96
		c-0.08-0.32-0.19-0.6-0.32-0.84c-0.1-0.18-0.18-0.36-0.25-0.55c-0.07-0.19-0.11-0.4-0.11-0.63c0-0.1,0.01-0.21,0.04-0.35
		s0.06-0.26,0.13-0.37c0.06-0.11,0.14-0.21,0.23-0.29c0.1-0.08,0.21-0.12,0.36-0.12c0.15,0,0.29,0.05,0.42,0.16
		c0.13,0.1,0.25,0.24,0.35,0.39c0.1,0.16,0.19,0.33,0.27,0.52c0.07,0.19,0.13,0.36,0.17,0.51c0.05,0.22,0.12,0.5,0.19,0.84
		c0.08,0.33,0.15,0.67,0.23,1.02c0.08,0.35,0.15,0.68,0.22,0.99c0.07,0.31,0.14,0.56,0.2,0.75c0.07,0.23,0.14,0.45,0.22,0.66
		c0.08,0.21,0.16,0.38,0.23,0.53s0.15,0.27,0.23,0.35c0.08,0.09,0.15,0.13,0.21,0.13c0.05,0,0.13-0.07,0.24-0.21
		c0.43-0.57,0.87-1.18,1.33-1.82s0.91-1.29,1.35-1.93c0.16-0.23,0.3-0.45,0.43-0.65c0.13-0.2,0.24-0.39,0.34-0.57
		s0.19-0.35,0.28-0.52c0.08-0.17,0.16-0.34,0.23-0.51l0.2-0.82c0.02-0.08,0.06-0.17,0.11-0.25c0.05-0.09,0.11-0.16,0.17-0.23
		c0.06-0.07,0.14-0.13,0.23-0.17c0.09-0.04,0.18-0.07,0.29-0.07c0.14,0,0.25,0.03,0.35,0.08c0.1,0.05,0.18,0.13,0.24,0.21
		c0.06,0.09,0.11,0.19,0.14,0.31s0.05,0.24,0.05,0.36c0,0.14-0.03,0.3-0.08,0.48c-0.05,0.18-0.13,0.37-0.21,0.56
		c-0.09,0.19-0.19,0.38-0.3,0.57s-0.22,0.36-0.32,0.51c-0.75,1.06-1.5,2.14-2.27,3.23c-0.77,1.09-1.55,2.14-2.34,3.14
		c-0.7,0.89-1.39,1.72-2.07,2.48c-0.67,0.76-1.29,1.42-1.85,1.99c-0.12,0.12-0.26,0.23-0.41,0.34c-0.15,0.1-0.31,0.16-0.48,0.16
		c-0.09,0-0.16-0.02-0.22-0.06c-0.06-0.04-0.11-0.09-0.14-0.15c-0.04-0.06-0.06-0.13-0.08-0.21C10.69,36.12,10.68,36.05,10.68,35.97
		z"/>
	<path class="st0" d="M22.21,27.82c0.02-0.08,0.05-0.15,0.09-0.21c0.04-0.06,0.08-0.11,0.13-0.14c0.04-0.04,0.08-0.06,0.12-0.08
		c0.04-0.02,0.06-0.02,0.09-0.02c0.06,0,0.13,0.01,0.2,0.02c0.08,0.01,0.15,0.02,0.23,0.04c0.08,0.02,0.16,0.03,0.24,0.05
		c0.14,0.01,0.23,0.06,0.29,0.16c0.06,0.1,0.09,0.23,0.09,0.38c0,0.11-0.02,0.22-0.05,0.32c-0.18,0.65-0.34,1.22-0.48,1.7
		c-0.15,0.48-0.27,0.89-0.37,1.23c-0.1,0.34-0.18,0.61-0.23,0.83c-0.05,0.21-0.08,0.38-0.08,0.48s0.01,0.23,0.04,0.37
		c0.03,0.14,0.07,0.26,0.13,0.38c0.06,0.12,0.13,0.21,0.22,0.29c0.09,0.08,0.2,0.12,0.32,0.12c0.22,0,0.44-0.07,0.66-0.2
		c0.22-0.14,0.44-0.3,0.64-0.5s0.39-0.4,0.55-0.63c0.16-0.22,0.3-0.42,0.4-0.59l0.2-0.35c0.13-0.22,0.24-0.47,0.35-0.75
		c0.11-0.28,0.2-0.57,0.28-0.86c0.08-0.29,0.15-0.56,0.21-0.81c0.06-0.25,0.1-0.45,0.13-0.61l0.2-1.04c0.04-0.2,0.11-0.33,0.19-0.41
		c0.09-0.08,0.23-0.11,0.43-0.11c0.13,0,0.25,0.01,0.35,0.04c0.1,0.03,0.19,0.08,0.27,0.15c0.07,0.07,0.13,0.17,0.16,0.29
		c0.04,0.12,0.05,0.28,0.05,0.47c0,0.22-0.04,0.5-0.11,0.82c-0.07,0.33-0.15,0.65-0.23,0.98c-0.05,0.19-0.1,0.4-0.14,0.61
		c-0.05,0.22-0.09,0.43-0.13,0.65c-0.04,0.22-0.07,0.42-0.09,0.62s-0.04,0.37-0.04,0.53c0,0.27,0.01,0.53,0.03,0.8
		c0.02,0.27,0.03,0.55,0.03,0.84c0,0.14,0,0.26-0.01,0.36c-0.01,0.1-0.02,0.18-0.04,0.23c-0.06,0.2-0.13,0.35-0.22,0.45
		c-0.09,0.1-0.25,0.15-0.46,0.15c-0.15,0-0.27-0.02-0.36-0.05c-0.09-0.03-0.16-0.08-0.21-0.14c-0.05-0.06-0.08-0.12-0.1-0.19
		s-0.03-0.14-0.03-0.21l-0.09-1.48L26,32.83c-0.17,0.22-0.36,0.46-0.56,0.73c-0.2,0.27-0.43,0.52-0.67,0.76
		c-0.25,0.23-0.51,0.43-0.8,0.59s-0.6,0.24-0.94,0.24c-0.07,0-0.16-0.02-0.26-0.05c-0.11-0.03-0.22-0.08-0.33-0.13
		c-0.11-0.05-0.22-0.11-0.33-0.18c-0.1-0.06-0.19-0.13-0.25-0.18c-0.29-0.27-0.49-0.56-0.61-0.9c-0.12-0.33-0.18-0.67-0.18-1.02
		c0-0.19,0.02-0.39,0.05-0.58c0.03-0.19,0.07-0.38,0.11-0.56c0.04-0.18,0.09-0.35,0.14-0.51c0.05-0.16,0.09-0.3,0.12-0.43
		c0.1-0.39,0.19-0.73,0.27-1.03s0.15-0.56,0.21-0.78c0.06-0.22,0.11-0.42,0.15-0.57C22.14,28.08,22.17,27.94,22.21,27.82z"/>
	<path class="st0" d="M29.87,33.97c0.07-0.36,0.15-0.77,0.23-1.2c0.09-0.44,0.18-0.88,0.27-1.33c0.09-0.45,0.18-0.89,0.27-1.32
		c0.09-0.43,0.16-0.83,0.23-1.19c-0.01-0.05-0.01-0.1-0.01-0.14s0-0.08,0-0.13c0-0.16,0.01-0.32,0.03-0.48
		c0.02-0.16,0.05-0.31,0.09-0.45c0.06-0.2,0.12-0.33,0.19-0.4s0.18-0.11,0.34-0.11c0.15,0,0.27,0.03,0.36,0.09
		c0.09,0.06,0.16,0.14,0.21,0.24c0.05,0.1,0.09,0.21,0.1,0.34c0.02,0.13,0.02,0.26,0.02,0.39c0,0.07,0,0.15-0.01,0.24
		c-0.01,0.09-0.01,0.16-0.01,0.21c0.15-0.15,0.3-0.31,0.46-0.46c0.16-0.16,0.34-0.3,0.52-0.43c0.18-0.13,0.38-0.23,0.59-0.32
		c0.21-0.08,0.42-0.13,0.64-0.13c0.09,0,0.18,0.01,0.26,0.02s0.17,0.04,0.26,0.06c0.1,0.03,0.21,0.06,0.32,0.11
		c0.11,0.04,0.22,0.11,0.32,0.18c0.17,0.13,0.32,0.29,0.43,0.49s0.18,0.39,0.18,0.6c0,0.08-0.02,0.16-0.05,0.25
		c-0.03,0.09-0.07,0.17-0.13,0.25c-0.05,0.08-0.12,0.14-0.19,0.19c-0.07,0.05-0.15,0.07-0.24,0.07c-0.09,0-0.2-0.02-0.32-0.07
		c-0.13-0.04-0.23-0.1-0.32-0.18c-0.04-0.03-0.07-0.08-0.11-0.13c-0.04-0.06-0.08-0.11-0.11-0.17c-0.03-0.06-0.07-0.11-0.09-0.16
		c-0.03-0.05-0.05-0.08-0.07-0.1c-0.03,0-0.05-0.01-0.09-0.01c-0.03,0-0.06,0-0.09,0c-0.27,0-0.52,0.07-0.76,0.2
		c-0.24,0.14-0.46,0.3-0.67,0.5c-0.21,0.2-0.4,0.4-0.57,0.63c-0.17,0.22-0.33,0.42-0.46,0.6c-0.1,0.42-0.22,0.87-0.35,1.35
		c-0.13,0.48-0.25,0.98-0.38,1.5v0.2c0,0.16-0.01,0.32-0.02,0.48c-0.01,0.16-0.04,0.3-0.09,0.43c-0.06,0.08-0.14,0.14-0.25,0.2
		c-0.11,0.05-0.23,0.08-0.37,0.08c-0.22,0-0.38-0.07-0.49-0.21s-0.16-0.31-0.16-0.5C29.83,34.15,29.84,34.06,29.87,33.97z"/>
	<path class="st0" d="M40.32,34.44c0-0.15,0.02-0.33,0.05-0.54c0.04-0.21,0.05-0.47,0.05-0.79c-0.17,0.13-0.36,0.27-0.57,0.45
		c-0.21,0.17-0.42,0.34-0.65,0.49c-0.22,0.16-0.45,0.29-0.67,0.39c-0.22,0.11-0.43,0.16-0.62,0.16c-0.16,0-0.3-0.02-0.45-0.07
		s-0.26-0.11-0.36-0.19c-0.28-0.22-0.48-0.44-0.6-0.66c-0.12-0.22-0.18-0.47-0.18-0.77c0-0.13,0.01-0.27,0.04-0.41
		s0.06-0.3,0.11-0.48c0.2-0.82,0.54-1.58,1.02-2.29c0.48-0.7,1.08-1.3,1.79-1.79c0.28-0.19,0.55-0.32,0.83-0.37
		c0.28-0.05,0.55-0.08,0.82-0.08c0.12,0,0.25,0.01,0.4,0.02s0.28,0.03,0.4,0.05c0.12-0.03,0.22-0.04,0.29-0.05
		c0.08-0.01,0.15-0.02,0.24-0.02c0.16,0,0.29,0.02,0.39,0.06c0.1,0.04,0.19,0.1,0.25,0.17s0.11,0.15,0.14,0.24
		c0.03,0.09,0.04,0.19,0.04,0.29c0,0.14-0.02,0.26-0.06,0.39c-0.04,0.12-0.08,0.25-0.13,0.37l-1.03,4.12
		c-0.02,0.22-0.04,0.43-0.05,0.62s-0.05,0.36-0.09,0.52c-0.02,0.05-0.04,0.11-0.06,0.18s-0.06,0.14-0.11,0.2
		c-0.05,0.07-0.12,0.12-0.2,0.17s-0.18,0.07-0.3,0.07c-0.16,0-0.29-0.01-0.39-0.03c-0.1-0.02-0.17-0.05-0.22-0.09
		c-0.05-0.04-0.09-0.09-0.1-0.14S40.32,34.51,40.32,34.44z M37.73,32.08c-0.02,0.07-0.04,0.18-0.07,0.31
		c-0.02,0.14-0.04,0.27-0.04,0.41c0,0.14,0.02,0.27,0.06,0.38c0.04,0.11,0.13,0.17,0.27,0.17c0.22,0,0.42-0.05,0.61-0.14
		c0.19-0.1,0.37-0.21,0.54-0.35c0.22-0.18,0.45-0.39,0.68-0.61c0.23-0.23,0.45-0.46,0.66-0.71c0.21-0.25,0.39-0.51,0.55-0.77
		c0.16-0.26,0.27-0.52,0.35-0.79c0.04-0.15,0.08-0.33,0.11-0.52c0.03-0.2,0.04-0.38,0.04-0.53c0-0.07-0.02-0.13-0.05-0.2
		c-0.03-0.06-0.09-0.1-0.18-0.1c-0.26,0-0.51,0.05-0.77,0.15c-0.26,0.1-0.51,0.23-0.75,0.4c-0.24,0.17-0.47,0.36-0.68,0.59
		c-0.22,0.23-0.41,0.47-0.59,0.73c-0.18,0.26-0.33,0.52-0.46,0.8C37.89,31.55,37.8,31.82,37.73,32.08z"/>
	<path class="st0" d="M51.72,34.08c0.1-0.4,0.24-0.84,0.41-1.32c0.18-0.48,0.38-0.99,0.61-1.52c0.23-0.53,0.49-1.06,0.77-1.6
		c0.28-0.54,0.57-1.07,0.87-1.58c0.3-0.51,0.61-1,0.92-1.45c0.31-0.46,0.63-0.86,0.93-1.22c0.09-0.1,0.2-0.22,0.33-0.37
		c0.13-0.15,0.28-0.3,0.45-0.45s0.34-0.31,0.52-0.46c0.18-0.15,0.36-0.29,0.54-0.41c0.18-0.12,0.36-0.22,0.53-0.3
		c0.17-0.08,0.33-0.11,0.48-0.11c0.2,0,0.38,0.03,0.54,0.1c0.16,0.07,0.3,0.16,0.42,0.29s0.21,0.27,0.27,0.45
		c0.06,0.17,0.1,0.37,0.1,0.57c0,0.09-0.01,0.18-0.02,0.27c-0.01,0.09-0.03,0.18-0.05,0.27l-0.87,4.36
		c0.08-0.12,0.19-0.28,0.33-0.49c0.14-0.21,0.3-0.43,0.48-0.69c0.18-0.25,0.36-0.52,0.55-0.79c0.19-0.27,0.38-0.54,0.57-0.79
		c0.18-0.25,0.36-0.49,0.51-0.7s0.28-0.38,0.38-0.51l0.14-0.18c0.09-0.12,0.21-0.26,0.34-0.42c0.14-0.16,0.29-0.33,0.45-0.51
		c0.16-0.18,0.34-0.35,0.52-0.52c0.18-0.17,0.37-0.33,0.55-0.46c0.19-0.14,0.37-0.25,0.55-0.33c0.18-0.09,0.36-0.13,0.52-0.13
		c0.13,0,0.23,0.03,0.31,0.09c0.08,0.06,0.15,0.13,0.2,0.23c0.05,0.1,0.09,0.21,0.11,0.34c0.02,0.13,0.03,0.27,0.03,0.41
		c0,0.22-0.02,0.44-0.05,0.66c-0.04,0.22-0.08,0.43-0.13,0.61c-0.03,0.15-0.06,0.35-0.11,0.63c-0.04,0.27-0.1,0.58-0.16,0.93
		c-0.06,0.35-0.12,0.73-0.19,1.14c-0.07,0.41-0.14,0.82-0.21,1.25s-0.14,0.84-0.21,1.25c-0.07,0.41-0.14,0.8-0.2,1.15
		c-0.06,0.36-0.11,0.68-0.16,0.96c-0.05,0.28-0.09,0.5-0.12,0.66c-0.02,0.07-0.04,0.17-0.07,0.3c-0.03,0.13-0.08,0.25-0.15,0.37
		c-0.07,0.12-0.15,0.22-0.26,0.31c-0.11,0.09-0.24,0.13-0.39,0.13c-0.08,0-0.16-0.03-0.24-0.08c-0.08-0.05-0.14-0.12-0.2-0.21
		c-0.06-0.08-0.11-0.17-0.14-0.27c-0.03-0.1-0.05-0.18-0.06-0.26l1.63-7.72c0.02-0.07,0.03-0.14,0.04-0.2
		c0.01-0.06,0.02-0.11,0.02-0.16c0-0.06-0.01-0.11-0.02-0.16c-0.01-0.05-0.02-0.09-0.04-0.13c-0.02-0.05-0.03-0.09-0.05-0.13
		c-0.23,0.18-0.49,0.4-0.75,0.68c-0.27,0.27-0.54,0.58-0.81,0.91s-0.55,0.69-0.82,1.07c-0.27,0.38-0.53,0.76-0.78,1.14
		c-0.19,0.3-0.4,0.61-0.62,0.94c-0.22,0.33-0.44,0.66-0.67,0.99c-0.22,0.33-0.44,0.66-0.65,0.99c-0.21,0.33-0.4,0.65-0.57,0.95
		c-0.08,0.15-0.17,0.33-0.26,0.56c-0.09,0.23-0.19,0.45-0.29,0.67c-0.11,0.22-0.22,0.41-0.34,0.56c-0.12,0.16-0.26,0.23-0.42,0.23
		c-0.12,0-0.22-0.02-0.3-0.05c-0.08-0.04-0.14-0.08-0.19-0.14c-0.05-0.06-0.08-0.13-0.1-0.21c-0.02-0.08-0.03-0.17-0.03-0.26
		c0-0.12,0.01-0.24,0.04-0.36c0.02-0.12,0.05-0.23,0.07-0.34c0.11-0.46,0.22-0.91,0.34-1.37c0.12-0.45,0.24-0.92,0.37-1.39
		c0.13-0.47,0.26-0.96,0.39-1.47c0.14-0.51,0.27-1.05,0.41-1.62c0.04-0.16,0.08-0.34,0.13-0.54c0.05-0.2,0.09-0.4,0.13-0.61
		c0.04-0.21,0.08-0.4,0.1-0.6c0.03-0.19,0.04-0.36,0.04-0.52c0-0.14-0.01-0.24-0.03-0.32c-0.02-0.08-0.06-0.12-0.12-0.12
		c-0.19,0-0.4,0.07-0.61,0.21c-0.21,0.14-0.43,0.33-0.65,0.57s-0.44,0.5-0.65,0.8c-0.21,0.3-0.42,0.61-0.61,0.93
		c-0.19,0.32-0.37,0.64-0.54,0.95c-0.17,0.31-0.31,0.59-0.43,0.84c-0.03,0.05-0.06,0.12-0.11,0.21c-0.05,0.09-0.11,0.22-0.2,0.38
		c-0.08,0.16-0.18,0.37-0.3,0.63c-0.12,0.26-0.26,0.58-0.41,0.97c-0.16,0.39-0.34,0.86-0.55,1.4c-0.21,0.54-0.44,1.18-0.7,1.91
		c-0.05,0.13-0.13,0.23-0.25,0.3s-0.24,0.12-0.36,0.12c-0.27,0-0.47-0.07-0.6-0.22c-0.13-0.15-0.19-0.33-0.19-0.54
		C51.68,34.3,51.7,34.2,51.72,34.08z"/>
</g>
<g>
</g>
<g>
</g>
<g>
</g>
<g>
</g>
<g>
</g>
</svg>
