<svg version="1.1" id="Слой_1" xmlns="http://www.w3.org/2000/svg" x="0" y="0" viewBox="0 0 80.08 53.67" xml:space="preserve"><path d="M10.68 35.97c0-.13.03-.25.1-.38.06-.13.15-.26.27-.4.11-.14.24-.28.39-.43s.3-.31.46-.48c.31-.31.63-.64.97-.98.34-.34.66-.69.97-1.05.13-.16.23-.28.31-.38.08-.1.14-.18.18-.25.04-.06.06-.12.08-.17l.03-.14c-.22-.28-.41-.59-.58-.91-.17-.33-.32-.67-.45-1.03a22.772 22.772 0 01-.66-2.15c-.09-.32-.17-.64-.25-.96-.08-.32-.19-.6-.32-.84-.1-.18-.18-.36-.25-.55-.07-.19-.11-.4-.11-.63 0-.1.01-.21.04-.35s.06-.26.13-.37c.06-.11.14-.21.23-.29.1-.08.21-.12.36-.12s.29.05.42.16c.13.1.25.24.35.39.1.16.19.33.27.52.07.19.13.36.17.51.05.22.12.5.19.84.08.33.15.67.23 1.02.08.35.15.68.22.99.07.31.14.56.2.75.07.23.14.45.22.66.08.21.16.38.23.53s.15.27.23.35c.08.09.15.13.21.13.05 0 .13-.07.24-.21A112.832 112.832 0 0018.44 26c.16-.23.3-.45.43-.65s.24-.39.34-.57.19-.35.28-.52c.08-.17.16-.34.23-.51l.2-.82a.91.91 0 01.11-.25c.05-.09.11-.16.17-.23.06-.07.14-.13.23-.17.09-.04.18-.07.29-.07.14 0 .25.03.35.08.1.05.18.13.24.21.06.09.11.19.14.31s.05.24.05.36c0 .14-.03.3-.08.48s-.13.37-.21.56a7.817 7.817 0 01-.62 1.08c-.75 1.06-1.5 2.14-2.27 3.23a73.22 73.22 0 01-2.34 3.14c-.7.89-1.39 1.72-2.07 2.48-.67.76-1.29 1.42-1.85 1.99-.12.12-.26.23-.41.34-.15.1-.31.16-.48.16a.4.4 0 01-.36-.21.656.656 0 01-.08-.21.545.545 0 01-.05-.24zm11.53-8.15c.02-.08.05-.15.09-.21.04-.06.08-.11.13-.14.04-.04.08-.06.12-.08.04-.02.06-.02.09-.02.06 0 .13.01.2.02.08.01.15.02.23.04.08.02.16.03.24.05.14.01.23.06.29.16.06.1.09.23.09.38 0 .11-.02.22-.05.32-.18.65-.34 1.22-.48 1.7-.15.48-.27.89-.37 1.23-.1.34-.18.61-.23.83-.05.21-.08.38-.08.48s.01.23.04.37c.03.14.07.26.13.38s.13.21.22.29c.09.08.2.12.32.12.22 0 .44-.07.66-.2.22-.14.44-.3.64-.5s.39-.4.55-.63c.16-.22.3-.42.4-.59l.2-.35c.13-.22.24-.47.35-.75.11-.28.2-.57.28-.86.08-.29.15-.56.21-.81s.1-.45.13-.61l.2-1.04c.04-.2.11-.33.19-.41.09-.08.23-.11.43-.11.13 0 .25.01.35.04.1.03.19.08.27.15.07.07.13.17.16.29.04.12.05.28.05.47 0 .22-.04.5-.11.82-.07.33-.15.65-.23.98-.05.19-.1.4-.14.61-.05.22-.09.43-.13.65-.04.22-.07.42-.09.62s-.04.37-.04.53c0 .27.01.53.03.8.02.27.03.55.03.84 0 .14 0 .26-.01.36-.01.1-.02.18-.04.23-.06.2-.13.35-.22.45-.09.1-.25.15-.46.15-.15 0-.27-.02-.36-.05a.458.458 0 01-.21-.14c-.05-.06-.08-.12-.1-.19s-.03-.14-.03-.21l-.09-1.48-.06.03c-.17.22-.36.46-.56.73-.2.27-.43.52-.67.76-.25.23-.51.43-.8.59s-.6.24-.94.24c-.07 0-.16-.02-.26-.05-.11-.03-.22-.08-.33-.13a2.685 2.685 0 01-.58-.36c-.29-.27-.49-.56-.61-.9-.12-.33-.18-.67-.18-1.02 0-.19.02-.39.05-.58.03-.19.07-.38.11-.56.04-.18.09-.35.14-.51.05-.16.09-.3.12-.43a145.551 145.551 0 01.48-1.81c.06-.22.11-.42.15-.57.02-.15.05-.29.09-.41zm7.66 6.15c.07-.36.15-.77.23-1.2.09-.44.18-.88.27-1.33.09-.45.18-.89.27-1.32.09-.43.16-.83.23-1.19-.01-.05-.01-.1-.01-.14v-.13c0-.16.01-.32.03-.48.02-.16.05-.31.09-.45.06-.2.12-.33.19-.4s.18-.11.34-.11c.15 0 .27.03.36.09.09.06.16.14.21.24.05.1.09.21.1.34.02.13.02.26.02.39 0 .07 0 .15-.01.24s-.01.16-.01.21c.15-.15.3-.31.46-.46.16-.16.34-.3.52-.43s.38-.23.59-.32c.21-.08.42-.13.64-.13.09 0 .18.01.26.02s.17.04.26.06c.1.03.21.06.32.11.11.04.22.11.32.18.17.13.32.29.43.49s.18.39.18.6c0 .08-.02.16-.05.25-.03.09-.07.17-.13.25-.05.08-.12.14-.19.19-.07.05-.15.07-.24.07s-.2-.02-.32-.07a.834.834 0 01-.32-.18c-.04-.03-.07-.08-.11-.13-.04-.06-.08-.11-.11-.17-.03-.06-.07-.11-.09-.16a.534.534 0 00-.07-.1c-.03 0-.05-.01-.09-.01h-.09c-.27 0-.52.07-.76.2-.24.14-.46.3-.67.5-.21.2-.4.4-.57.63-.17.22-.33.42-.46.6-.1.42-.22.87-.35 1.35-.13.48-.25.98-.38 1.5v.2c0 .16-.01.32-.02.48-.01.16-.04.3-.09.43-.06.08-.14.14-.25.2-.11.05-.23.08-.37.08-.22 0-.38-.07-.49-.21s-.16-.31-.16-.5c.05-.1.06-.19.09-.28zm10.45.47c0-.15.02-.33.05-.54.04-.21.05-.47.05-.79-.17.13-.36.27-.57.45-.21.17-.42.34-.65.49-.22.16-.45.29-.67.39-.22.11-.43.16-.62.16-.16 0-.3-.02-.45-.07s-.26-.11-.36-.19c-.28-.22-.48-.44-.6-.66-.12-.22-.18-.47-.18-.77 0-.13.01-.27.04-.41s.06-.3.11-.48a6.924 6.924 0 012.81-4.08c.28-.19.55-.32.83-.37.28-.05.55-.08.82-.08.12 0 .25.01.4.02s.28.03.4.05c.12-.03.22-.04.29-.05.08-.01.15-.02.24-.02.16 0 .29.02.39.06a.652.652 0 01.39.41c.03.09.04.19.04.29 0 .14-.02.26-.06.39-.04.12-.08.25-.13.37l-1.03 4.12c-.02.22-.04.43-.05.62s-.05.36-.09.52c-.02.05-.04.11-.06.18s-.06.14-.11.2c-.05.07-.12.12-.2.17s-.18.07-.3.07c-.16 0-.29-.01-.39-.03a.503.503 0 01-.22-.09c-.05-.04-.09-.09-.1-.14s-.02-.12-.02-.19zm-2.59-2.36c-.02.07-.04.18-.07.31-.02.14-.04.27-.04.41 0 .14.02.27.06.38.04.11.13.17.27.17.22 0 .42-.05.61-.14.19-.1.37-.21.54-.35.22-.18.45-.39.68-.61.23-.23.45-.46.66-.71.21-.25.39-.51.55-.77.16-.26.27-.52.35-.79.04-.15.08-.33.11-.52.03-.2.04-.38.04-.53 0-.07-.02-.13-.05-.2-.03-.06-.09-.1-.18-.1-.26 0-.51.05-.77.15-.26.1-.51.23-.75.4s-.47.36-.68.59a5.887 5.887 0 00-1.05 1.53c-.12.25-.21.52-.28.78zm13.99 2c.1-.4.24-.84.41-1.32.18-.48.38-.99.61-1.52.23-.53.49-1.06.77-1.6s.57-1.07.87-1.58c.3-.51.61-1 .92-1.45.31-.46.63-.86.93-1.22.09-.1.2-.22.33-.37s.28-.3.45-.45.34-.31.52-.46c.18-.15.36-.29.54-.41.18-.12.36-.22.53-.3.17-.08.33-.11.48-.11.2 0 .38.03.54.1.16.07.3.16.42.29s.21.27.27.45c.06.17.1.37.1.57 0 .09-.01.18-.02.27-.01.09-.03.18-.05.27l-.87 4.36c.08-.12.19-.28.33-.49.14-.21.3-.43.48-.69.18-.25.36-.52.55-.79.19-.27.38-.54.57-.79.18-.25.36-.49.51-.7s.28-.38.38-.51l.14-.18c.09-.12.21-.26.34-.42l.45-.51c.16-.18.34-.35.52-.52.18-.17.37-.33.55-.46.19-.14.37-.25.55-.33.18-.09.36-.13.52-.13.13 0 .23.03.31.09.08.06.15.13.2.23.05.1.09.21.11.34.02.13.03.27.03.41 0 .22-.02.44-.05.66-.04.22-.08.43-.13.61-.03.15-.06.35-.11.63-.04.27-.1.58-.16.93-.06.35-.12.73-.19 1.14-.07.41-.14.82-.21 1.25s-.14.84-.21 1.25c-.07.41-.14.8-.2 1.15-.06.36-.11.68-.16.96l-.12.66c-.02.07-.04.17-.07.3a1.309 1.309 0 01-.41.68c-.11.09-.24.13-.39.13-.08 0-.16-.03-.24-.08a.673.673 0 01-.2-.21.867.867 0 01-.14-.27c-.03-.1-.05-.18-.06-.26l1.63-7.72c.02-.07.03-.14.04-.2.01-.06.02-.11.02-.16 0-.06-.01-.11-.02-.16a.495.495 0 00-.04-.13c-.02-.05-.03-.09-.05-.13-.23.18-.49.4-.75.68-.27.27-.54.58-.81.91s-.55.69-.82 1.07c-.27.38-.53.76-.78 1.14-.19.3-.4.61-.62.94-.22.33-.44.66-.67.99-.22.33-.44.66-.65.99-.21.33-.4.65-.57.95-.08.15-.17.33-.26.56-.09.23-.19.45-.29.67-.11.22-.22.41-.34.56-.12.16-.26.23-.42.23-.12 0-.22-.02-.3-.05a.553.553 0 01-.19-.14.512.512 0 01-.1-.21 1.09 1.09 0 01-.03-.26c0-.12.01-.24.04-.36.02-.12.05-.23.07-.34.11-.46.22-.91.34-1.37.12-.45.24-.92.37-1.39.13-.47.26-.96.39-1.47.14-.51.27-1.05.41-1.62.04-.16.08-.34.13-.54s.09-.4.13-.61c.04-.21.08-.4.1-.6.03-.19.04-.36.04-.52 0-.14-.01-.24-.03-.32-.02-.08-.06-.12-.12-.12-.19 0-.4.07-.61.21-.21.14-.43.33-.65.57s-.44.5-.65.8c-.21.3-.42.61-.61.93-.19.32-.37.64-.54.95-.17.31-.31.59-.43.84-.03.05-.06.12-.11.21s-.11.22-.2.38c-.08.16-.18.37-.3.63s-.26.58-.41.97c-.16.39-.34.86-.55 1.4-.21.54-.44 1.18-.7 1.91-.05.13-.13.23-.25.3s-.24.12-.36.12c-.27 0-.47-.07-.6-.22a.793.793 0 01-.19-.54c.03-.11.05-.21.07-.33z" fill="none" stroke="#fff" stroke-width="2" stroke-miterlimit="10"/></svg>